<?xml version="1.0" standalone="no"?>
<!DOCTYPE svg PUBLIC "-//W3C//DTD SVG 20010904//EN"
 "http://www.w3.org/TR/2001/REC-SVG-20010904/DTD/svg10.dtd">
<svg version="1.0" xmlns="http://www.w3.org/2000/svg"
 width="300.000000pt" height="300.000000pt" viewBox="0 0 300.000000 300.000000"
 preserveAspectRatio="xMidYMid meet">
<metadata>
Created by potrace 1.11, written by Peter Selinger 2001-2013
</metadata>
<g transform="translate(0.000000,300.000000) scale(0.100000,-0.100000)"
fill="#000000" stroke="none">
<path d="M81 2912 c-151 -76 -64 -306 100 -262 38 11 99 69 99 95 0 13 63 15
468 14 l467 0 -80 -24 c-243 -72 -415 -174 -590 -350 -210 -211 -330 -442
-381 -740 -24 -136 -14 -397 19 -530 33 -128 67 -219 123 -325 195 -367 568
-634 979 -701 103 -17 327 -17 430 0 423 69 803 349 997 736 88 175 128 343
135 565 7 243 -29 424 -127 625 -72 149 -143 247 -265 370 -175 176 -347 278
-590 350 l-80 24 468 0 c404 1 467 -1 467 -14 0 -26 61 -84 99 -95 66 -18 131
11 162 72 64 126 -64 253 -190 188 -31 -15 -48 -32 -60 -61 l-16 -39 -537 0
-538 0 0 60 0 60 -140 0 -140 0 0 -60 0 -60 -537 0 -538 0 -16 39 c-12 28 -29
46 -58 60 -49 26 -85 26 -130 3z m130 -61 c40 -41 40 -89 -2 -130 -88 -89
-219 40 -132 131 38 40 93 39 134 -1z m1389 -66 l0 -95 -100 0 -100 0 0 95 0
95 100 0 100 0 0 -95z m1319 69 c43 -36 44 -93 2 -135 -41 -40 -89 -40 -130 2
-42 41 -42 89 -2 130 39 38 87 39 130 3z m-1468 -1198 c-51 -55 -12 -146 62
-146 72 0 112 85 67 143 -19 24 -20 38 -18 290 l3 265 153 -366 c84 -202 152
-370 152 -374 0 -3 -20 -18 -45 -33 -65 -37 -123 -101 -156 -170 -16 -33 -29
-66 -29 -72 0 -10 -31 -13 -124 -13 l-123 0 -18 48 c-34 90 -107 174 -188 217
-20 11 -35 24 -33 30 2 5 73 174 158 375 l153 365 3 -269 c2 -254 1 -271 -17
-290z m309 -636 l0 -80 -250 0 -250 0 0 80 0 80 250 0 250 0 0 -80z m-110
-240 l0 -80 -140 0 -140 0 0 80 0 80 140 0 140 0 0 -80z"/>
</g>
</svg>
