<?xml version="1.0" standalone="no"?>
<!DOCTYPE svg PUBLIC "-//W3C//DTD SVG 20010904//EN"
 "http://www.w3.org/TR/2001/REC-SVG-20010904/DTD/svg10.dtd">
<svg version="1.0" xmlns="http://www.w3.org/2000/svg"
 width="430.000000pt" height="430.000000pt" viewBox="0 0 430.000000 430.000000"
 preserveAspectRatio="xMidYMid meet">
<metadata>
Created by potrace 1.11, written by Peter Selinger 2001-2013
</metadata>
<g transform="translate(0.000000,430.000000) scale(0.100000,-0.100000)"
fill="#000000" stroke="none">
<path d="M2067 4294 c-1 -1 -46 -4 -101 -8 -54 -3 -101 -8 -105 -10 -3 -2 -30
-7 -60 -10 -149 -18 -409 -100 -581 -183 -224 -109 -405 -237 -580 -413 -148
-147 -232 -253 -330 -414 -127 -211 -239 -509 -274 -731 -60 -374 -35 -706 79
-1051 212 -645 725 -1154 1376 -1365 104 -33 290 -75 376 -84 35 -4 75 -9 90
-11 43 -6 343 -6 392 0 221 27 380 64 558 131 500 187 920 567 1156 1045 77
155 86 177 131 319 45 142 76 300 92 466 5 57 5 335 0 365 -3 14 -7 48 -10 75
-5 44 -26 165 -40 234 -3 13 -10 38 -16 56 -6 18 -12 41 -14 51 -12 57 -104
290 -144 364 -65 119 -90 161 -140 235 -277 408 -699 716 -1167 852 -114 33
-177 47 -255 59 -19 3 -46 7 -60 9 -71 12 -363 27 -373 19z"/>
</g>
</svg>
