<?xml version="1.0" standalone="no"?>
<!DOCTYPE svg PUBLIC "-//W3C//DTD SVG 20010904//EN"
 "http://www.w3.org/TR/2001/REC-SVG-20010904/DTD/svg10.dtd">
<svg version="1.0" xmlns="http://www.w3.org/2000/svg"
 width="412.000000pt" height="412.000000pt" viewBox="0 0 412.000000 412.000000"
 preserveAspectRatio="xMidYMid meet">
<metadata>
Created by potrace 1.11, written by Peter Selinger 2001-2013
</metadata>
<g transform="translate(0.000000,412.000000) scale(0.100000,-0.100000)"
fill="#000000" stroke="none">
<path d="M323 3687 c0 -206 -3 -379 -7 -385 -5 -8 -53 -11 -162 -9 l-154 2 2
-245 3 -245 158 0 c98 0 157 -4 158 -10 0 -5 2 -334 3 -730 3 -705 3 -722 24
-800 51 -182 173 -315 347 -375 56 -19 70 -23 130 -35 14 -3 37 -8 53 -11 97
-21 538 -6 623 21 19 6 19 16 17 288 l-3 282 -95 -3 c-162 -4 -249 19 -302 83
-37 45 -41 100 -40 689 0 314 1 578 1 586 1 13 32 15 219 15 l217 0 3 243 c2
226 1 242 -15 243 -10 0 -109 1 -220 1 l-203 0 -1 27 c0 14 -1 187 -1 384 l-1
357 -377 0 -377 0 0 -373z"/>
<path d="M1779 4045 c0 -8 -1 -112 -1 -230 0 -118 1 -221 1 -228 1 -9 73 -12
329 -12 l327 0 3 243 2 242 -330 0 c-286 0 -330 -2 -331 -15z"/>
<path d="M2619 4033 c-3 -107 -1 -433 3 -444 5 -12 60 -14 329 -14 l324 0 3
243 2 242 -330 0 -330 0 -1 -27z"/>
<path d="M3462 3818 l3 -243 325 0 325 0 3 243 2 242 -330 0 -330 0 2 -242z"/>
<path d="M2617 3364 c-1 -1 -29 -4 -62 -8 -164 -17 -307 -66 -440 -151 -89
-57 -241 -216 -298 -311 -111 -188 -174 -388 -202 -648 -7 -67 -8 -273 -1
-326 2 -19 7 -62 11 -95 15 -143 77 -352 143 -480 80 -157 215 -312 348 -400
113 -75 273 -135 409 -152 96 -12 288 -5 337 12 7 2 24 6 38 9 130 24 297 129
400 254 l45 53 3 -530 2 -531 385 0 385 0 0 1615 c0 1531 -1 1615 -17 1616
-20 0 -616 0 -679 0 l-42 -1 1 -147 c0 -82 -4 -148 -9 -150 -5 -1 -24 19 -42
46 -105 156 -276 267 -468 306 -64 12 -238 26 -247 19z m405 -634 c53 -16 150
-84 190 -133 85 -105 138 -244 154 -407 6 -54 5 -242 -1 -270 -3 -14 -8 -42
-10 -62 -9 -63 -59 -190 -99 -251 -134 -201 -394 -266 -605 -151 -129 70 -224
241 -248 449 -9 76 -8 263 1 335 26 199 115 376 225 444 112 70 258 87 393 46z"/>
</g>
</svg>
