<svg xmlns="http://www.w3.org/2000/svg" id="Layer_1" viewBox="0 0 367.6 166.3" xml:space="preserve"><g fill="#FFD100"><path d="M354.5 1.5c-7.3 12.8-15.8 28.7-23.2 44-1.1 2-2.4 4.3-3.9 7-2-2.1-7.5-7.4-12.8-7.4-6.2 0-13.9 8.3-20.7 18.6-10 14.9-32 43-35.4 43-1.2 0 5.2-21.5 22.8-45.4 3.9-5.3-11.3-14-13.8-11.5-.5.5-1.8 2.8-4 6.1-7.5 10.1-38.7 54.7-43.9 54.7-1.2 0 .6-11.1 17.9-33.1 2.5-3.2-4.6-8.7-9.1-10.1 5.3 0-3.1-13.6-13.1-13.6-4 0-9.5 4.3-15 10.7-5.9 6.5-23.8 27.6-32.3 37.7-6.9 7.6-12.6 13.5-13.7 13.5-3.5 0 14.6-31.7 26.6-48.5 2.7-3.8-8.1-9.5-9-10-1.1-.6-5.6.5-9 1.4 3.9-5.9 8.2-11.9 9.8-14.3 4.3-6.6-10.4-15.4-14.1-10.3-3 4.2-17.8 25.1-17.7 31.5.1 4.4 1.7 5.8 4.1 8.3-13.5 18.8-35.6 46-38.7 46-1.2 0 3.7-19.4 21.3-43.3 3.9-5.3-11.3-14-13.8-11.5-2.3 2.3-21.8 37.7-21.8 52.8 0 5.8 7 12.6 13.3 12.6 6.3 0 32.6-36.8 44.9-54.9 3.2-.5 6.1-1.3 8-2-7.9 13.1-19.1 33-19 40.4.1 6.8 7.4 12.6 13.5 12.6 4.9 0 17.3-16.6 29.4-33.9-4.1 8.3-6.8 15.7-6.8 19.1 0 6.7 5.5 11.8 10.1 11.8 5.1 0 17.4-16.9 25.8-29.3-2.2 5.3-3.7 10-3.7 12.5 0 6.8 7.1 13.6 12.5 13.6 5.4-.1 19.2-20.2 27.8-33.6-2.7 6.8-4.5 13.1-4.5 17.5 0 5.8 7.8 12.6 14.2 12.6h.1c3.9-.2 12.5-11.1 20.3-22.2-.9 2.6-1.4 4.7-1.4 6 0 8.6 7.1 13.7 12.6 13.8s0 0 .1 0h.4c5.7-1.1 17.6-18.2 25.8-31.1-1.3 4.5-2.1 8.3-2.1 11.1 0 9 10.3 16.4 15.2 16.4 6.5 0 20.5-18.3 20.5-20.9s-1-3.4-1.7-3.9c-2-1.6.6-2.6.2-4.2-1.6-5.1 10.4-21.7 9-23.1-1.8-1.8-30.5 36.9-32 35.8-1.6-1.1 19.5-47.8 42.7-84.5 2.2-3.3-9.7-13.9-12.7-8.5M224.5 68h.3c-.2.3-.5.7-.8 1.2-5.1 6.6-31.8 41.2-34.5 41.2-2.5 0 18-42.4 35-42.4m92.2-9.5c3.9-2.5 6.1-.8 7 .2-11.6 19.1-29.1 45.2-33.4 45.2-2.1.1 12.5-36.5 26.4-45.4"/><path d="M119.5 52.2c.8-.1.7-.1 1.8-.2 1.1 0 .8-.4 2.1-.5 1.3-.1 1.9.6 3.3.6s2.9.4 3.8.8c.9.4 3.1.1 3.8.2.8.1 1.8 0 2.6-.7s6.2-7.2 6.5-10.3c.4-4.6-10.2-11.3-12.3-11-1.5.2-1.3 1.5-1.9 3.3-.6 1.7-8.2 13.6-9.3 15.2-1.2 1.5-1.2 2.7-.4 2.6M275.7 38.4c1.6-.3 3-.2 4.2-.5s1.5-.8 3-.1c1.5.7 2.4.3 3.5.7s3.1.5 4.8.7c2 .3 7.4-6.8 9-11.3 1.5-4-13-16.9-15.3-10.4 0 0-10.2 17.1-11.4 19.3-.5 1 .6 2 2.2 1.6M297.4 123.5c-2.4 0-102.2 7.2-133.3 10S62.6 144.5 59 144.6s-5.1-.5-6.1 0c-2.5 1.2 2.7 18.3 12.5 17.1 44.7-6.8 152.8-18.8 154.3-18.9 1.5-.1 4.9-.4 6-.8 1-.4 4-.6 4.9-1.1s5.4-1.1 7.3-1.8c1.8-.6 2.5-.8 3-1.1.5-.4 4.3-.6 6-.6 1.7 0 3-1 4.2-1.8 1.2-.7 3.2-.5 4.7-.7 1.5-.3 2.1-1.1 2.6-1.3.4-.3.7-1.4 1.8-1.5 1.1-.1 2.8-.5 4-.7 1.2-.3 4.5-.7 7-.7 2.6 0 2.4-1.4 4.3-1.5 1.9-.1 9.5-2.8 11.6-3.3 2.1-.5 4-.9 7.4-1.2 3.3-.3 5.2-1.1 2.9-1.2"/><path d="M67.7 100.3c-2.2 5.7-3.9 10.8-4.8 14.6-2.1 9.3 11.9 20.6 12.5 17.2C81.9 95.2 122.2 19 125.2 15c3.1-4.1-11.5-16.2-15.7-11.3-1.9 2.2-39.2 46.2-70.9 86.2-13 2.1-26.7 3.3-37.7 2.2-2.8-.3 1 20.7 9.9 21.8 2 .2 5.5-.2 10.1-1.1-3 3.9-5.8 7.7-8.4 11.3 0 0-9.5 11.4-8.6 15.5.4 2 .9 1.3 1 2.7.1 1.4-.6 1.7-.4 2.8.4 2.4-.8 5-.1 5.9.5.6.6 4.1 1.3 4.2.6.1.6 1.9.5 3-.1 1.2.3 3.1.4 4.6s.5 1.1.4 1.9c-.1.7 1.2 2.2 1.7 1.5.5-.9.6-.5 1-1.6s.4-1.1.9-2c5.5-11.4 10.8-19.4 10.8-19.4 6.9-10.1 16.6-23.5 26.6-37 7-2.1 14-4.2 19.7-5.9m23.7-51.9s-8.3 16.5-16 33.8C72.1 83 68 84 63.5 85c15.3-20.2 27.9-36.6 27.9-36.6M310.3 124.5h.5c.5 0 1-.2 1-.6 0-.4-.3-.6-.9-.6h-.5l-.1 1.2zm-.1 2.4h-1v-4.2c.4 0 .9-.1 1.6-.1.8 0 1.2.1 1.4.3.3.2.4.5.4.9 0 .5-.4.8-.9 1 .4.1.6.5.7 1 .1.6.2.9.3 1h-1c-.1-.1-.2-.5-.3-1-.1-.4-.3-.6-.9-.6h-.5l.2 1.7zm-2.5-2.2c0 1.9 1.4 3.3 3.3 3.3 1.8 0 3.2-1.5 3.2-3.3 0-1.9-1.4-3.4-3.2-3.4-1.9 0-3.3 1.5-3.3 3.4m7.5 0c0 2.4-1.9 4.2-4.3 4.2s-4.3-1.9-4.3-4.2 1.9-4.2 4.3-4.2 4.3 1.8 4.3 4.2"/></g></svg>