<?xml version="1.0" encoding="utf-8"?>
<!-- Generator: Adobe Illustrator 16.0.3, SVG Export Plug-In . SVG Version: 6.00 Build 0)  -->
<svg version="1.1" id="K_x26_N_Plain_Logo" xmlns="http://www.w3.org/2000/svg" xmlns:xlink="http://www.w3.org/1999/xlink" x="0px"
	 y="0px" width="820px" height="285.39px" viewBox="0 0 820 285.39" enable-background="new 0 0 820 285.39" xml:space="preserve">
<polygon fill="#FF6E00" points="378.095,10.082 10,10.082 10,142.633 314.735,142.633 "/>
<polygon fill="#D70000" points="347.274,274.697 10,274.697 10,150.55 404.715,150.55 "/>
<path d="M405,142.61l-90.266,0.029l63.36-132.546l88.983-0.025L438.13,74.902l75.958-64.825L605.38,10l-81.89,62.292l33.677,70.396
	l-86.84-0.003l-32.393-67.297L405,142.61z M660.468,67.881c-11.657-3.495-29.535-11.096-28.247-26.036
	c2.246-17.482,17.535-19.693,25.818-19.366c8.277,0.322,21.797,5.825,17.544,21.632c-2.113,4.258-8.536,4.544-8.902-4.624
	c-0.075-2.02-1.563-4.913-5.679-7.583c-3.422-2.217-8.521-2.251-12.534,1.053c-8.549,7.055-6.066,20.66,6.032,23.853
	c12.105,3.192,22.925,3.199,31.221-6.014c8.286-9.209,6.303-25.703-13.752-33.347c-20.059-7.653-40.354-11.208-64.885,1.167
	c-24.535,12.374-20.537,27.318-20.537,27.318s-0.852,8.504,12.201,14.876c5.397,2.929,8.834,4.313,8.834,4.313
	s-18.2,3.698-26.272,7.339c-6.794,3.063-26.211,11.652-29.403,27.047c-3.039,14.654,10.85,30.863,38.234,38.25
	c26.695,7.205,57.057,6.569,82.765-7.49c26.269-14.37,20.866-32.893,13.342-42.729c22.189,11.96,25.471,15.537,37.907,30.301
	c18.937,22.47,32.237,25.77,48.102,24.273c23.198-2.185,38.866-19.188,37.681-45.405c-1.172-25.854-31.27-46.308-61.368-32.414
	c0,0,33.553-1.257,27.241,22.978c-5.826,22.362-31.488,10.593-41.092,3.937c-6.553-4.546-39.467-20.059-58.582-18.167
	c-19.104,1.888-44.067,11.615-41.424,27.302c2.714,16.131,14.046,16.606,16.547,15.279c2.38-1.271,0.834-15.354,8.291-12.076
	c6.284,2.762,3.169,19.715-9.57,23.518c-12.744,3.801-36.196-1.638-40.003-23.898c-0.629-7.629,5.496-14.631,5.496-14.631
	s8.447-11.422,27.548-16.161C656.785,68.96,660.468,67.881,660.468,67.881z M404.715,150.55l155.426,0.034l38.157,71.252
	l33.146-71.663l77.1,0.074l-56.001,124.517l-116.724-0.013l-48.313-102.618l-47.231,102.589l-93.002,0.023L404.715,150.55z
	 M681.847,260.633c1.498,1.519,2.255,3.319,2.26,5.396c0.01,2.134-0.735,3.968-2.229,5.505c-1.498,1.524-3.303,2.292-5.425,2.3
	c-2.126,0.012-3.936-0.738-5.447-2.24c-1.52-1.504-2.287-3.338-2.296-5.498c-0.009-2.086,0.727-3.891,2.206-5.416
	c1.507-1.559,3.326-2.345,5.475-2.355C678.503,258.317,680.327,259.086,681.847,260.633 M682.993,259.436
	c-1.828-1.812-4.034-2.719-6.611-2.706c-2.456,0.012-4.593,0.865-6.406,2.56c-1.935,1.816-2.893,4.092-2.884,6.813
	c0.009,2.623,0.918,4.831,2.723,6.621c1.812,1.792,4.027,2.683,6.651,2.669c2.537-0.009,4.712-0.896,6.521-2.66
	c1.854-1.825,2.777-4.063,2.77-6.711C685.742,263.448,684.824,261.255,682.993,259.436 M677.573,265.349
	c-0.357,0.254-0.848,0.382-1.485,0.388l-1.047,0.004l-0.013-3l0.658-0.005c0.674-0.003,1.2,0.064,1.574,0.208
	c0.553,0.217,0.833,0.608,0.838,1.177C678.104,264.684,677.924,265.095,677.573,265.349 M675.049,267.599h0.57l0.594,0.034
	c0.418,0.023,0.726,0.077,0.927,0.164c0.374,0.139,0.628,0.393,0.763,0.755c0.084,0.219,0.142,0.64,0.174,1.264
	c0.027,0.623,0.079,1.103,0.165,1.43l2.58-0.01l-0.08-0.293c-0.04-0.101-0.063-0.201-0.076-0.306
	c-0.013-0.098-0.022-0.198-0.022-0.302l-0.004-0.921c0-1.06-0.312-1.826-0.918-2.315c-0.335-0.261-0.82-0.455-1.472-0.589
	c0.71-0.077,1.302-0.313,1.788-0.704c0.485-0.39,0.727-1.02,0.718-1.89c-0.005-1.14-0.469-1.96-1.391-2.463
	c-0.54-0.293-1.222-0.466-2.038-0.524c-0.146-0.004-0.855-0.008-2.134-0.008c-1.281,0.004-2.243,0.004-2.881,0.004l0.045,10.345
	l2.706-0.012L675.049,267.599z"/>
</svg>
