<svg xmlns="http://www.w3.org/2000/svg" viewBox="0 0 138.1 46.36"><defs><style>.cls-1{fill:#fff;}</style></defs><title>logo_1</title><g id="Layer_2" data-name="Layer 2"><g id="Layer_1-2" data-name="Layer 1"><path class="cls-1" d="M3.74,29.64V14.52H0V8.91H3.74V0h8.74V8.91H17.6v5.61H12.48v13.2c0,2.2,1.21,2.75,3.14,2.75.77,0,1.65-.06,2-.06V37a21.3,21.3,0,0,1-4.9.44C7.48,37.4,3.74,35.69,3.74,29.64Z"/><path class="cls-1" d="M19.34,29.2c0-6.21,4.95-8.08,10.78-8.85,5.28-.66,7.15-1.21,7.15-3.14s-1.15-3-3.85-3c-2.86,0-4.29,1.26-4.56,3.63H20.61c.22-5.23,4.23-9.68,12.76-9.68,4.23,0,7.09.77,9.13,2.31,2.42,1.76,3.57,4.51,3.57,8V32.67c0,2.25.22,3.52,1,4v.39H38.37a7.92,7.92,0,0,1-.93-3.14h-.11c-1.65,2.36-4.13,3.85-8.36,3.85C23.36,37.78,19.34,34.76,19.34,29.2ZM37.49,27V23.65a21.87,21.87,0,0,1-4.62,1.48c-3.46.77-4.89,1.65-4.89,3.8s1.65,3.13,3.85,3.13C35.18,32.06,37.49,30,37.49,27Z"/><path class="cls-1" d="M48,23c0-8.47,5.83-14.9,14.74-14.9,7.65,0,12.54,4.45,13.37,10.78H67.47c-.55-2.53-2.09-4.18-4.62-4.18-3.85,0-5.77,3.19-5.77,8.3s1.92,8.2,5.77,8.2c2.81,0,4.51-1.65,4.9-4.84h8.58C76.11,32.89,70.94,38,63,38,53.89,38,48,31.51,48,23Z"/><path class="cls-1" d="M80.43,29.64V14.52H76.69V8.91h3.74V0h8.74V8.91h5.12v5.61H89.17v13.2c0,2.2,1.21,2.75,3.14,2.75.77,0,1.65-.06,2-.06V37a21.3,21.3,0,0,1-4.9.44C84.17,37.4,80.43,35.69,80.43,29.64Z"/><path class="cls-1" d="M97.22,8.91h9V37.07h-9Z"/><path class="cls-1" d="M129.19,34.1H129A9,9,0,0,1,121.22,38C114.12,38,109,32.12,109,23c0-8.47,4.51-14.91,12.37-14.91a8.89,8.89,0,0,1,8,4.4h.17V8.91h8.52V46.36h-8.91Zm.28-10.89c0-4.57-2-8.09-5.83-8.09s-5.56,3.3-5.56,8.09,2,7.64,5.56,7.64S129.47,27.83,129.47,23.21Z"/><rect class="cls-1" x="21.25" width="6.74" height="5.61"/><rect class="cls-1" x="29.83" width="6.74" height="5.61"/><rect class="cls-1" x="38.42" width="6.74" height="5.61"/></g></g></svg>