<svg xmlns="http://www.w3.org/2000/svg" viewBox="0 0 222.15 35.72"><defs><style>.cls-1{fill:#f85452;}</style></defs><title>logo</title><g id="Layer_2" data-name="Layer 2"><g id="Layer_1-2" data-name="Layer 1"><path class="cls-1" d="M16.27.83l-1.36.28c-2.52.54-2.77,1.16-2.77,7.44V24.24c0,6.44-2.73,8.67-11.85,11.48L0,34.81c4.5-2.11,5.37-3.88,5.37-8.14V8.55c0-6.28-.25-6.9-2.77-7.44L1.24.83V0C2,0,7.27.08,8.75.08S15.48,0,16.27,0Z"/><path class="cls-1" d="M34.89,27.75a11.55,11.55,0,0,1-4.34.7c-2.18,0-3.84-1-4.45-2.77-1.82,1.86-3.47,2.93-6.12,2.93a4.82,4.82,0,0,1-5-4.79c0-3.05,1.61-4.29,6.32-5.78,1.57-.49,3.09-.86,4.7-1.23V14.29c0-3.51-1.4-4.3-3.18-4.3a2.91,2.91,0,0,0-.95.13c-.74,4.54-1.65,5.78-3.3,5.78a2.45,2.45,0,0,1-2.52-2.52c0-1.86,3.59-5.41,9.5-5.41,5,0,6.94,1.9,6.94,5.86V25.31c0,1.07.53,1.61,1.36,1.61a6.51,6.51,0,0,0,.82,0ZM26,18a25.84,25.84,0,0,0-2.72,1.12c-1.7.86-2.56,1.73-2.56,3.18C20.73,24,22.26,25,24.2,25A5.44,5.44,0,0,0,26,24.77Z"/><path class="cls-1" d="M43.49,28.57a19.39,19.39,0,0,1-7.31-1.44V21.84h2.27c.71,3.31,2.69,5.29,5.41,5.29,2,0,3.22-1.12,3.22-2.73S46.3,22,42.87,20.93c-5-1.52-6.56-3.3-6.56-6.64s3-6.4,7.72-6.4a14.52,14.52,0,0,1,6.44,1.36v5H48.16c-.66-3.18-2.07-5-4.5-5a2.56,2.56,0,0,0-2.77,2.6c0,1.86.83,2.52,4.21,3.55,5,1.53,6.53,3.35,6.53,6.49C51.63,26.22,47.83,28.57,43.49,28.57Z"/><path class="cls-1" d="M63.74,28.65c-6.52,0-10.69-3.84-10.69-10.52,0-5.62,4.08-10.33,10.77-10.33,6.53,0,10.7,3.84,10.7,10.53C74.52,24,70.43,28.65,63.74,28.65ZM63.37,9.29C61.06,9.29,60,11,60,16.52c0,6.64,1.28,10.65,4.21,10.65,2.32,0,3.39-1.74,3.39-7.23C67.58,13.3,66.3,9.29,63.37,9.29Z"/><path class="cls-1" d="M98.86,28.32c-.83,0-3.92,0-5.66,0s-4.54,0-5.53,0V27.5l.49-.12C89.65,27,90,26.3,90,22.67V15.52c0-2.68-1.11-4-3.22-4a7.93,7.93,0,0,0-2.68.46V22.67c0,3.63.37,4.33,1.86,4.71l.49.12v.82c-1,0-3.88,0-5.61,0s-4.83,0-5.7,0V27.5l.74-.17c1.36-.28,1.74-1,1.74-5.45V14.62c0-2.36-.38-3.06-1.7-3.89l-.78-.49V9.58l8.22-1.69.74.49V11a11.25,11.25,0,0,1,6.93-3C94.61,8,96.5,10,96.5,14.12v7.76c0,4.59.38,5.12,1.86,5.5l.5.12Z"/><path class="cls-1" d="M147.42,28.32c-.83,0-5.54-.08-7-.08s-6.65.08-7.43.08v-.78l1.65-.33c2.19-.45,2.52-1.28,2.23-6.81l-.71-13.84-9.45,21.89h-1L116.08,6.56l-.54,13.14c-.25,5.9.33,7.06,3.39,7.72l.37.08v.82c-.79,0-3.72-.08-5.2-.08s-4,.08-5,.08V27.5l.37-.08c2.77-.62,3.39-1.82,3.8-7.68l.74-11c.42-6-.37-7.14-2.68-7.64L110,.83V0c.87,0,3.67.08,5.12.08s3.92,0,5-.08l8.29,19.57L136.81,0c.78,0,2.8.08,3.59.08,1.53,0,5.16,0,6.19-.08V.83l-1.4.28c-2.4.5-2.73,1.45-2.44,7.68l.58,11.65c.29,5.57.78,6.44,3,6.85l1.12.21Z"/><path class="cls-1" d="M167.2,27.75a11.63,11.63,0,0,1-4.34.7c-2.19,0-3.84-1-4.46-2.77-1.82,1.86-3.47,2.93-6.11,2.93a4.83,4.83,0,0,1-5-4.79c0-3.05,1.62-4.29,6.32-5.78,1.57-.49,3.1-.86,4.71-1.23V14.29c0-3.51-1.4-4.3-3.18-4.3a2.91,2.91,0,0,0-.95.13c-.74,4.54-1.65,5.78-3.3,5.78a2.45,2.45,0,0,1-2.52-2.52c0-1.86,3.59-5.41,9.5-5.41,5,0,6.93,1.9,6.93,5.86V25.31c0,1.07.54,1.61,1.36,1.61a6.66,6.66,0,0,0,.83,0ZM158.32,18a26.85,26.85,0,0,0-2.73,1.12C153.9,20,153,20.85,153,22.3,153,24,154.56,25,156.5,25a5.51,5.51,0,0,0,1.82-.21Z"/><path class="cls-1" d="M183.56,14.37a23.85,23.85,0,0,1-4.95-.95,14.74,14.74,0,0,0-1.53.58v7.84c0,4.54.37,4.92,2.89,5.54l.49.12v.82c-1,0-5.08,0-6.81,0s-4.66,0-5.53,0V27.5l.74-.17c1.36-.28,1.74-1,1.74-5.45V14.62c0-2.36-.38-3.06-1.7-3.89l-.78-.49V9.58l8.21-1.69.75.49v4.09c2.76-4,3.92-4.54,5.78-4.54a2.45,2.45,0,0,1,2.68,2.68C185.54,13.34,184.63,14.37,183.56,14.37Z"/><path class="cls-1" d="M191.84,16.93c.29,5.08,3.22,8.09,7.31,8.09a7.75,7.75,0,0,0,4.91-1.61l.54.66c-2.69,3.14-5.45,4.58-9.25,4.58-5.12,0-9.37-3.42-9.37-9.74A10.76,10.76,0,0,1,196.5,7.8c5.83,0,8.35,3.47,8.43,9.13Zm6.65-1.57c-.13-4.34-1.2-6.07-3.22-6.07s-3.35,2.06-3.47,6.07Z"/><path class="cls-1" d="M214,28.57a19.35,19.35,0,0,1-7.31-1.44V21.84H209c.7,3.31,2.68,5.29,5.41,5.29,2,0,3.22-1.12,3.22-2.73s-.79-2.43-4.21-3.47c-5-1.52-6.57-3.3-6.57-6.64s3.06-6.4,7.72-6.4A14.49,14.49,0,0,1,221,9.25v5h-2.31c-.66-3.18-2.06-5-4.5-5a2.55,2.55,0,0,0-2.76,2.6c0,1.86.82,2.52,4.21,3.55,5,1.53,6.52,3.35,6.52,6.49C222.15,26.22,218.35,28.57,214,28.57Z"/></g></g></svg>