<?xml version="1.0" encoding="utf-8"?>
<!-- Generator: Adobe Illustrator 23.0.1, SVG Export Plug-In . SVG Version: 6.00 Build 0)  -->
<svg version="1.1" id="Layer_1" xmlns="http://www.w3.org/2000/svg" xmlns:xlink="http://www.w3.org/1999/xlink" x="0px" y="0px"
	 viewBox="0 0 222.1 35.7" style="enable-background:new 0 0 222.1 35.7;" xml:space="preserve">
<style type="text/css">
	.st0{fill:#F85452;}
</style>
<title>logo</title>
<g>
	<path class="st0" d="M29.6,2.9c-0.9,0.1-2.4,0.4-3.3,0.7c-1.1,0.4-1.4,1.3-1.4,2.3v18c0,6.8-5.3,10.5-11.5,10.5
		C7.6,34.4,5,32,5,28.6c0-2.7,1.8-4.5,4.4-4.5c2.6,0,4,1.7,4,3.9c0,1.8-1.3,3.5-3,4.3v0.2c0.4,0.2,1.1,0.3,1.5,0.3
		c3.6,0,5.3-2.8,5.3-8V6.1c0-1-0.4-1.9-1.4-2.3c-0.8-0.4-2.6-0.8-3.5-0.9V1.8h17.4V2.9z"/>
	<path class="st0" d="M52.2,27.4c-0.1,3.9-1.5,6.8-5.7,6.8c-3,0-4.4-1.3-5.3-3H41c-1.5,1.6-3,3.1-6.6,3.1c-3.2,0-5.6-2.2-5.6-5.3
		c0-4,2.2-5.2,4.6-6c2.8-1,6.6-2.1,7.7-3v-2.7c0-1.6,0-4.7-2.6-4.7c-1.2,0-1.9,0.5-2.3,0.9c0.1,0.7,0.8,2.1,0.8,3.5
		c0,1-1.4,2.7-3.8,2.7s-3.3-1.7-3.3-3.2c0-2.9,5-5,9-5c5,0,9.1,0.8,9.1,7c0,4.2-0.3,9.2-0.3,10.7c0,0.7,0.5,2.2,1.7,2.2
		c1.4,0,1.8-1.9,1.8-4H52.2z M41.1,21.4c-3.2,1.3-5.3,2.3-5.3,6.2c0,2.7,1,3.7,2.3,3.7c1.6,0,2-0.7,2.7-1.8L41.1,21.4z"/>
	<path class="st0" d="M70.4,27c0,4.7-3.9,7.2-8.9,7.2c-3,0-5.4-1.3-6.4-2l-0.8,1.6h-1.4l-0.2-8h0.9c0.9,2.8,3.8,7.3,7.6,7.3
		c2.4,0,3.5-1.4,3.5-3.6c0-2.4-2.1-3.2-5.3-4.3c-3.1-1.1-6.1-2.8-6.1-7.2c0-3.6,3.1-6.6,8.2-6.6c2.3,0,4.3,0.6,5.6,1.3l0.6-1.3H69
		l0.3,7.3h-0.9c-1-3.2-3.7-6.1-6.3-6.1c-2.2,0-3.1,1.4-3.1,3.1c0,2.4,1.5,2.9,5.1,4.1C67.8,21.1,70.4,23.2,70.4,27z"/>
	<path class="st0" d="M94.6,22.7c0,6.5-4,11.6-11.7,11.6c-6.3,0-11.4-4.3-11.4-11.4c0-6.6,4.5-11.3,11.6-11.3
		C90.3,11.5,94.6,16.1,94.6,22.7z M87.1,22.6c0-4.9-0.6-10-4-10c-3.6,0-4.1,5.5-4.1,10c0,5.6,0.8,10.5,4.1,10.5
		C86.2,33,87.1,28.2,87.1,22.6z"/>
	<path class="st0" d="M121.5,33.5h-12.3v-1c0.6,0,1.3-0.1,1.7-0.4c0.6-0.3,0.7-1,0.7-2V18.9c0-3.2-1.1-4.5-2.7-4.5
		c-2.4,0-3.6,1.8-4.1,2.8v12.7c0,1,0.2,1.7,0.8,2.1s1.2,0.5,1.8,0.6v1H95v-1c0.7,0,1.3-0.1,2-0.4c0.8-0.3,1.2-1,1.2-2V16.4
		c0-1-0.5-2-1.2-2.5c-0.6-0.4-1.5-0.7-2.2-0.7v-0.9l9.9-0.6l0.3,0.3v3.2h0.1c1.7-1.8,3.3-3.8,7.2-3.8c4.2,0,6.4,2.9,6.4,7.3V30
		c0,1,0.2,1.7,1.1,2c0.7,0.3,1.2,0.5,2,0.6V33.5z"/>
	<path class="st0" d="M173.6,33.5h-17.7v-1.1c0.8-0.1,3.1-0.3,3.7-0.7c1.1-0.6,1.5-1.3,1.5-2.4V4.7L161,5.1L150.4,33h-2.2
		c-0.3-1-1.7-5.2-2.2-6.5l-7.8-20.6l-0.1,1.7v17.1c0,3.6,0.5,5.4,1.5,6.3c0.8,0.7,3.7,1.4,4.5,1.5v1.1h-13.6v-1.1
		c0.8-0.1,3.1-0.4,4.2-1.2s1.5-2.8,1.5-6.3V8.1c0-1.9-0.5-3.2-1.4-3.9c-1.1-0.9-2.8-1.2-4-1.3V1.8h13.8l8,20.7l6.3-16.7
		c0.6-1.6,0.9-3.4,1-4h13.7v1.1c-0.8,0.1-2.5,0.4-3.3,0.7c-1.1,0.4-1.4,1.3-1.4,2.3v23.7c0,1,0.4,1.8,1.4,2.3
		c0.5,0.3,2.6,0.7,3.4,0.7V33.5z"/>
	<path class="st0" d="M179.6,26c2.3,0,4.2,1.8,4.2,4.1c0,2.3-1.9,4.1-4.2,4.1s-4.2-1.8-4.2-4.1C175.5,27.7,177.4,26,179.6,26z"/>
</g>
</svg>
